<svg xmlns="http://www.w3.org/2000/svg" width="680.00" height="660.52" viewBox="0 0 680.00 660.52" font-family="sans-serif">
  <defs>
    <pattern id="hatch" patternUnits="userSpaceOnUse" width="7" height="7" patternTransform="rotate(45)">
      <line x1="0" y1="0" x2="0" y2="7" stroke="#2a9d8f" stroke-width="1.4"/>
    </pattern>
  </defs>
  <rect width="100%" height="100%" fill="white"/>
  <polygon points="391.429,40 327.722,46.1329 578.858,168.857 588.951,195.073 610.714,181.23" fill="url(#hatch)" fill-opacity="0.55" stroke="#2a9d8f" stroke-width="1" stroke-opacity="0.6"/>
  <polygon points="588.951,195.073 385.973,324.184 609.114,460.535 640,327.658" fill="url(#hatch)" fill-opacity="0.55" stroke="#2a9d8f" stroke-width="1" stroke-opacity="0.6"/>
  <polygon points="609.114,460.535 603.791,483.439 623.611,469.393" fill="url(#hatch)" fill-opacity="0.55" stroke="#2a9d8f" stroke-width="1" stroke-opacity="0.6"/>
  <polygon points="585.52,496.386 602.688,488.185 603.791,483.439" fill="url(#hatch)" fill-opacity="0.55" stroke="#2a9d8f" stroke-width="1" stroke-opacity="0.6"/>
  <polygon points="360.039,604.108 110.687,488.185 54.2848,327.658 86.8572,168.857 304.293,46.1329 40,40 54.2848,620.516 415.259,617.042 585.52,496.386" fill="url(#hatch)" fill-opacity="0.55" stroke="#2a9d8f" stroke-width="1" stroke-opacity="0.6"/>
  <polyline points="304.293,46.1329 86.8572,168.857 54.2848,327.658 110.687,488.185 360.039,604.108 602.688,488.185 640,327.658 578.858,168.857 327.722,46.1329" fill="none" stroke="#1f77b4" stroke-width="3" stroke-linejoin="round" stroke-linecap="round"/>
  <polyline points="304.293,46.1329 40,40 54.2848,620.516 415.259,617.042 623.611,469.393 385.973,324.184 610.714,181.23 391.429,40 327.722,46.1329" fill="none" stroke="#e4572e" stroke-width="3" stroke-linejoin="round" stroke-linecap="round"/>
  <circle cx="304.29" cy="46.13" r="4" fill="#333"/>
  <circle cx="327.72" cy="46.13" r="4" fill="#333"/>
  <text x="40.00" y="646.52" font-size="14" fill="#1f77b4">P</text>
  <text x="58.00" y="646.52" font-size="14" fill="#e4572e">Q</text>
  <text x="80.00" y="646.52" font-size="14" fill="#1d6f64">minimal homotopy area = 2900.93</text>
</svg>
